PathFileType	4	(X/Y/Z)	C:/Users/beibeiliu/ov580/test_trc/User2\sequence.12_training_dense_right.trc
DataRate	CameraRate	NumFrames	NumMarkers	Units	OrigDataRate	OrigDataStartFrame	OrigNumFrames
120	120	8	19	mm	120	224	446
Frame#	Time	ThumbCMC			ThumbMCP			ThumbIP			ThumbTip			IndexMCP			IndexPIP			IndexTip			MiddleMCP			MiddlePIP			MiddleTip			RingMCP			RingPIP			RingTip			PinkyMCP			PinkyPIP			PinkyTip			BackHand1			BackHand2			BackHand3	
		X0	Y0	Z0	X1	Y1	Z1	X2	Y2	Z2	X3	Y3	Z3	X4	Y4	Z4	X5	Y5	Z5	X6	Y6	Z6	X7	Y7	Z7	X8	Y8	Z8	X9	Y9	Z9	X10	Y10	Z10	X11	Y11	Z11	X12	Y12	Z12	X13	Y13	Z13	X14	Y14	Z14	X15	Y15	Z15	X16	Y16	Z16	X17	Y17	Z17	X18	Y18	Z18	
223	1.85833	125.689	9.90448	90.4795	102.337	31.7332	68.9179	77.2657	37.4353	51.1983	50.9539	29.5596	31.0818	103.87	-5.3302	13.8494	76.7083	8.68504	2.35838	46.7802	17.9452	18.9807	105.734	-36.3211	6.8874	89.7242	-35.3903	-22.6859	74.861	-32.5129	-45.3477	89.8083	-62.2585	20.1975	78.979	-64.2478	-3.10598	66.3816	-68.2762	-29.1963	76.5923	-70.444	49.7702	61.4208	-81.4146	25.7878	50.74	-94.4958	8.84878	117.068	-57.8589	74.4488	130.183	-58.9711	101.939	142.102	-29.8086	80.4421	
224	1.86667	112.651	16.548	95.7443	81.8564	26.9386	77.1909	54.0928	28.7118	58.5645	31.5641	19.1031	42.7056	91.1224	-1.96744	17.751	61.3312	3.9122	9.85865	30.4513	7.49403	25.5495	103.75	-29.2899	9.66765	85.5653	-32.5917	-20.5674	69.7444	-29.9667	-44.5123	96.4103	-58.898	25.4377	85.2095	-64.9715	-3.30849	72.9926	-65.6096	-29.9862	86.1777	-74.7886	45.484	76.4332	-84.6783	23.5492	71.3182	-97.0733	6.50913	118.249	-54.4728	71.8748	131.588	-52.6543	102.252	137.176	-21.2726	81.994	
225	1.875	99.3599	17.2735	98.789	66.4136	24.8441	86.5715	37.5121	20.7981	64.8356	18.2086	6.57188	49.9714	81.2248	-1.99513	21.1053	47.8268	2.64329	14.802	21.3973	-6.96365	30.3856	97.1178	-25.138	10.5238	80.9472	-24.1445	-17.8205	64.5744	-28.1882	-41.0319	97.6707	-56.1958	20.1166	88.0133	-57.979	-2.58009	77.1702	-67.9315	-27.4396	93.8906	-71.9205	41.5458	86.6735	-88.4882	24.3347	85.7233	-98.3498	-0.394127	118.424	-45.58	71.0051	133.673	-48.8839	101.524	132.301	-11.8545	84.1928	
226	1.88333	91.5595	13.2946	105.219	53.4191	18.6059	88.1588	26.109	12.7925	72.328	7.79669	-4.07203	53.3037	74.2432	1.58003	26.3572	41.4876	-6.98336	18.5977	16.6073	-18.3581	33.2511	92.4357	-24.9015	10.1259	75.7644	-22.5395	-16.8664	58.6213	-29.9469	-40.5585	98.6036	-51.1716	18.8794	90.5832	-57.4626	-1.77688	79.525	-62.4127	-27.6833	99.0353	-70.51	45.1088	95.078	-82.4839	21.2309	98.1387	-92.6316	1.09909	121.619	-45.3456	69.8247	135.257	-39.6917	102.674	124.357	-6.58884	84.6191	
227	1.89167	85.2329	11.2364	107.182	46.5083	13.0839	94.3394	20.5254	1.08026	73.8889	6.61165	-14.0864	60.2308	65.8578	-3.52625	25.4964	33.8091	-13.1411	22.1578	13.3246	-28.3028	38.2661	90.8467	-21.4128	11.2656	73.5254	-21.1363	-14.9121	57.1792	-28.9196	-38.8884	100.452	-46.8106	18.6119	93.0615	-51.8021	-4.69323	83.9339	-61.2057	-32.6244	104.685	-67.4699	40.9016	103.357	-79.6355	16.4456	106.934	-89.7742	-2.87985	122.157	-39.2447	70.6572	137.419	-34.2986	102.453	122.878	-4.89634	87.6214	
228	1.9	75.3491	12.1341	106.047	42.126	7.24282	96.1506	18.5462	-7.60415	73.1371	4.91924	-24.6277	55.7808	64.9557	-3.36801	28.7118	36.7243	-15.2314	21.0822	11.437	-36.0078	38.8525	91.6	-17.8791	15.2677	74.3881	-19.4383	-13.0051	57.369	-23.592	-39.6885	103.459	-39.6208	21.6373	97.8523	-49.1854	-7.43705	89.9796	-52.6935	-35.0931	112.263	-65.2843	41.3015	111.625	-72.1159	18.5895	117.055	-76.128	-6.8548	124.953	-31.7312	72.8762	137.705	-27.4311	101.371	116.5	3.89017	85.706	
229	1.90833	71.2407	6.26434	110.041	40.7461	-3.3999	96.4244	16.9146	-16.4141	71.2747	7.36333	-33.8009	53.3275	63.6286	-2.20591	28.0646	38.4932	-19.3897	18.7636	19.4336	-48.852	33.0789	90.2583	-8.80209	17.0338	76.269	-15.7044	-16.529	61.0141	-21.627	-41.6251	108.374	-32.2925	16.2986	104.556	-39.7078	-9.09403	100.379	-44.7389	-32.1589	121.316	-57.1687	34.475	120.384	-61.5159	10.0358	128.979	-65.897	-10.97	126.62	-27.7578	69.4213	138.6	-21.1906	104.651	113.055	7.18524	90.0574	
230	1.91667	69.2946	-4.39835	106.816	40.3256	-17.3565	88.9395	20.958	-31.2829	65.4611	18.5909	-47.6033	40.8879	63.7412	-3.29392	27.7396	45.936	-24.8794	15.0424	29.8477	-53.4275	24.1235	95.0231	-7.10526	16.6347	80.3287	-10.0065	-15.3952	70.2452	-16.7213	-39.615	113.796	-24.1363	19.668	113.854	-31.1026	-9.78142	109.685	-33.1168	-37.6613	129.717	-46.5628	32.9883	134.957	-52.3353	9.92008	141.431	-52.2475	-7.60328	130.573	-21.1923	75.206	140.445	-17.466	106.905	106.529	7.12883	94.92	
